<?xml version="1.0" encoding="UTF-8"?>
<svg xmlns="http://www.w3.org/2000/svg" xmlns:xlink="http://www.w3.org/1999/xlink" viewBox="0 0 50 50" width="50px" height="50px">
<g id="surface171183352">
<path style=" stroke:none;fill-rule:nonzero;fill:rgb(20.392157%,59.607846%,85.882354%);fill-opacity:1;" d="M 32.046875 2.972656 C 31.957031 2.96875 31.871094 2.980469 31.785156 3 L 18.148438 3 C 18.082031 2.988281 18.015625 2.984375 17.949219 2.988281 C 17.554688 3.007812 17.210938 3.253906 17.066406 3.621094 L 10.214844 15.367188 C 10.210938 15.367188 10.210938 15.367188 10.210938 15.367188 C 9.910156 15.734375 9.910156 16.261719 10.210938 16.628906 L 17.136719 28.503906 C 17.316406 28.8125 17.644531 29 18 29 C 18.355469 29 18.683594 28.8125 18.863281 28.503906 L 25.574219 17 L 39 17 C 39.359375 17 39.6875 16.808594 39.867188 16.496094 C 40.042969 16.1875 40.042969 15.804688 39.863281 15.496094 L 32.972656 3.683594 C 32.847656 3.273438 32.476562 2.984375 32.046875 2.972656 Z M 19.738281 5 L 30.257812 5 L 25 14.015625 Z M 18 5.984375 L 23.261719 15 L 12.742188 15 Z M 32 5.984375 L 37.261719 15 L 26.742188 15 Z M 12.742188 17 L 23.261719 17 L 18 26.015625 Z M 31.941406 21.003906 C 31.609375 21.019531 31.304688 21.207031 31.136719 21.496094 L 24.425781 33 L 11 33 C 10.640625 33 10.3125 33.191406 10.132812 33.503906 C 9.957031 33.8125 9.957031 34.195312 10.136719 34.503906 L 17.027344 46.316406 C 17.179688 46.820312 17.699219 47.121094 18.214844 47 L 31.789062 47 C 32.300781 47.117188 32.816406 46.820312 32.96875 46.320312 L 39.785156 34.636719 L 39.789062 34.632812 C 40.089844 34.265625 40.089844 33.738281 39.789062 33.371094 L 32.863281 21.496094 C 32.671875 21.171875 32.320312 20.980469 31.941406 21.003906 Z M 32 23.984375 L 37.257812 33 L 26.738281 33 Z M 12.738281 35 L 23.257812 35 L 18 44.015625 Z M 26.738281 35 L 37.257812 35 L 32 44.015625 Z M 25 35.984375 L 30.261719 45 L 19.742188 45 Z M 25 35.984375 "/>
</g>
</svg>
