<svg xmlns="http://www.w3.org/2000/svg" width="64" height="64"><path style="text-indent:0;text-align:start;line-height:normal;text-transform:none;block-progression:tb;marker:none;-inkscape-font-specification:Sans" d="M 9.5 1 C 5.0079234 1 1 5.0079 1 9.5 C 1 13.825868 4.7133083 17.687745 9 17.96875 L 9 30.5 A 0.50005 0.50005 0 0 0 9.5 31 L 30.5 31 A 0.50005 0.50005 0 0 0 31 30.5 L 31 14.53125 L 31 9.5 A 0.50005 0.50005 0 0 0 30.5 9 L 17.96875 9 C 17.687744 4.713289 13.825846 1 9.5 1 z M 8.78125 2.03125 C 8.8541285 2.0229199 8.9267984 2.0371021 9 2.03125 L 9 5 L 6.28125 5 C 6.5163352 4.1537553 6.8108025 3.3049949 7.15625 2.4375 C 7.6825403 2.2408227 8.2245728 2.0948787 8.78125 2.03125 z M 10 2.03125 C 10.612849 2.0805765 11.207345 2.1935013 11.78125 2.40625 C 12.131796 3.2846257 12.421346 4.1435474 12.65625 5 L 10 5 L 10 2.03125 z M 5.84375 3.0625 C 5.6156844 3.7076182 5.4178352 4.3592377 5.25 5 L 3.65625 5 C 4.2665487 4.2311046 5.0084658 3.5699833 5.84375 3.0625 z M 13.09375 3.0625 C 13.915174 3.5693404 14.652306 4.2324979 15.25 5 L 13.6875 5 C 13.521024 4.354591 13.322469 3.7126219 13.09375 3.0625 z M 2.96875 6 L 5 6 C 4.7881158 7.0017717 4.6731459 7.997117 4.625 9 L 2.03125 9 C 2.112384 7.9415317 2.4333163 6.9275541 2.96875 6 z M 6 6 L 9 6 L 9 9 L 5.625 9 C 5.6747339 7.9960471 5.7724608 7.0106267 6 6 z M 10 6 L 12.90625 6 C 13.129063 7.0057057 13.292824 8.0006071 13.34375 9 L 10 9 L 10 6 z M 13.90625 6 L 15.9375 6 C 16.455685 6.920103 16.78904 7.9530889 16.875 9 L 14.3125 9 C 14.264943 8.0005149 14.113238 6.9985197 13.90625 6 z M 2.03125 10 L 4.59375 10 C 4.6031914 10.995122 4.6871231 11.990435 4.875 13 L 3 13 C 2.4527241 12.081676 2.1168388 11.063376 2.03125 10 z M 5.59375 10 L 9 10 L 9 13 L 5.90625 13 C 5.7044028 11.995269 5.6057687 10.986612 5.59375 10 z M 10 10 L 17.5 10 L 30 10 L 30 13 L 10 13 L 10 10 z M 11.5 11 C 11.223851 11 11 11.2238 11 11.5 C 11 11.7761 11.223851 12 11.5 12 C 11.776148 12 12 11.7761 12 11.5 C 12 11.2238 11.776148 11 11.5 11 z M 13.5 11 C 13.223858 11 13 11.2238 13 11.5 C 13 11.7761 13.223858 12 13.5 12 C 13.776143 12 14 11.7761 14 11.5 C 14 11.2238 13.776143 11 13.5 11 z M 15.5 11 C 15.223858 11 15 11.2238 15 11.5 C 15 11.7761 15.223858 12 15.5 12 C 15.776143 12 16 11.7761 16 11.5 C 16 11.2238 15.776143 11 15.5 11 z M 3.71875 14 L 5.09375 14 C 5.2287091 14.550068 5.4022041 15.098751 5.59375 15.65625 C 4.8919996 15.200774 4.2515215 14.643712 3.71875 14 z M 6.125 14 L 9 14 L 9 16.875 C 8.3000056 16.817533 7.5908601 16.634926 6.9375 16.375 C 6.6100658 15.572315 6.3305742 14.778961 6.125 14 z M 10 14 L 30 14 L 30 14.53125 L 30 30 L 10 30 L 10 17.5625 A 0.50005 0.50005 0 0 0 10 17.5 L 10 14 z " color="#000" enable-background="accumulate" font-family="Sans" font-weight="400" overflow="visible"/></svg>